<?xml version="1.0" encoding="UTF-8"?>
<svg xmlns="http://www.w3.org/2000/svg" viewBox="0 0 566.93 566.93">
  <defs>
    <style>
      .cls-1 {
        letter-spacing: -.02em;
      }

      .cls-2, .cls-3 {
        stroke: #fff;
        stroke-miterlimit: 10;
      }

      .cls-4 {
        font-family: Gotham-Black, 'Gotham Black';
        font-size: 36.35px;
        font-weight: 800;
      }

      .cls-4, .cls-5 {
        fill: #fff;
      }

      .cls-3 {
        fill: none;
      }

      .cls-6, .cls-5 {
        stroke-width: 0px;
      }
    </style>
  </defs>
  <g id="Layer_1" data-name="Layer 1">
    <rect class="cls-6" width="567" height="567"/>
  </g>
  <g id="Layer_2" data-name="Layer 2">
    <g>
      <path class="cls-5" d="M434.83,51.67c11.61,0,21.05,9.44,21.05,21.05v421.48c0,11.61-9.44,21.05-21.05,21.05H132.05c-11.61,0-21.05-9.44-21.05-21.05V72.72c0-11.61,9.44-21.05,21.05-21.05h302.78M434.83,50.67H132.05c-12.18,0-22.05,9.87-22.05,22.05v421.48c0,12.18,9.87,22.05,22.05,22.05h302.78c12.18,0,22.05-9.87,22.05-22.05V72.72c0-12.18-9.87-22.05-22.05-22.05h0Z"/>
      <g>
        <g>
          <ellipse class="cls-3" cx="176.18" cy="387.75" rx="11.95" ry="27.88"/>
          <ellipse class="cls-3" cx="176.18" cy="387.75" rx="27.88" ry="11.95" transform="translate(-170.27 140.04) rotate(-30)"/>
          <ellipse class="cls-3" cx="176.18" cy="387.75" rx="11.95" ry="27.88" transform="translate(-247.71 346.46) rotate(-60)"/>
          <circle class="cls-5" cx="176.18" cy="387.75" r="3.98"/>
          <circle class="cls-5" cx="152.85" cy="381.49" r="3.98"/>
          <circle class="cls-5" cx="199.51" cy="394.01" r="3.98"/>
        </g>
        <circle class="cls-3" cx="230.24" cy="404.25" r="6.83"/>
        <circle class="cls-3" cx="274.05" cy="385.48" r="8.54"/>
        <circle class="cls-3" cx="391.83" cy="378.08" r="13.66"/>
        <circle class="cls-3" cx="348.59" cy="411.08" r="7.97"/>
        <circle class="cls-3" cx="406.06" cy="411.65" r="7.4"/>
        <circle class="cls-3" cx="413.46" cy="381.49" r="4.55"/>
        <circle class="cls-3" cx="404.92" cy="394.58" r="2.85"/>
        <circle class="cls-3" cx="384.44" cy="401.41" r="3.98"/>
        <circle class="cls-3" cx="377.04" cy="415.63" r="3.41"/>
        <circle class="cls-3" cx="350.87" cy="387.18" r="2.28"/>
        <circle class="cls-3" cx="311.61" cy="379.79" r="2.85"/>
        <circle class="cls-3" cx="305.92" cy="412.79" r="2.85"/>
        <circle class="cls-3" cx="222.84" cy="369.54" r="2.85"/>
        <circle class="cls-3" cx="276.33" cy="416.2" r="2.85"/>
        <circle class="cls-3" cx="171.63" cy="98.7" r="10.81"/>
        <circle class="cls-3" cx="185.29" cy="132.84" r="6.26"/>
        <circle class="cls-3" cx="190.41" cy="99.27" r="3.41"/>
        <circle class="cls-3" cx="182.44" cy="114.06" r="4.55"/>
        <circle class="cls-3" cx="163.67" cy="119.18" r="2.85"/>
        <circle class="cls-3" cx="167.65" cy="199.41" r="6.83"/>
        <circle class="cls-3" cx="202.93" cy="250.62" r="6.83"/>
        <circle class="cls-3" cx="231.95" cy="112.36" r="9.67"/>
        <circle class="cls-3" cx="322.99" cy="114.63" r="11.95"/>
        <circle class="cls-3" cx="350.87" cy="151.62" r="2.28"/>
        <circle class="cls-3" cx="350.87" cy="173.24" r="2.28"/>
        <circle class="cls-3" cx="381.02" cy="173.81" r="2.85"/>
        <circle class="cls-3" cx="404.92" cy="145.36" r="2.85"/>
        <circle class="cls-3" cx="398.66" cy="189.17" r="12.52"/>
        <circle class="cls-3" cx="402.08" cy="219.9" r="3.41"/>
        <circle class="cls-3" cx="372.49" cy="262" r="13.66"/>
        <circle class="cls-3" cx="380.45" cy="235.83" r="2.28"/>
        <circle class="cls-3" cx="358.26" cy="223.88" r="3.98"/>
        <circle class="cls-3" cx="345.18" cy="199.41" r="2.28"/>
        <circle class="cls-3" cx="407.77" cy="265.42" r="3.41"/>
        <circle class="cls-3" cx="381.02" cy="287.61" r="2.85"/>
        <circle class="cls-3" cx="383.87" cy="309.8" r="3.41"/>
        <circle class="cls-3" cx="409.47" cy="313.78" r="3.98"/>
        <circle class="cls-3" cx="176.18" cy="291.02" r="9.67"/>
        <circle class="cls-3" cx="171.63" cy="267.12" r="3.98"/>
        <circle class="cls-3" cx="165.37" cy="227.86" r="2.28"/>
        <circle class="cls-3" cx="186.43" cy="219.33" r="3.98"/>
        <circle class="cls-3" cx="206.34" cy="191.45" r="3.41"/>
        <circle class="cls-3" cx="227.96" cy="213.07" r="2.28"/>
        <circle class="cls-3" cx="242.19" cy="195.43" r="2.85"/>
        <circle class="cls-3" cx="227.96" cy="160.72" r="4.55"/>
        <circle class="cls-3" cx="196.67" cy="154.46" r="2.85"/>
        <circle class="cls-3" cx="168.79" cy="157.31" r="2.28"/>
        <circle class="cls-3" cx="233.08" cy="132.84" r="2.85"/>
        <circle class="cls-3" cx="238.2" cy="91.3" r="3.41"/>
        <circle class="cls-3" cx="267.22" cy="96.42" r="1.71"/>
        <circle class="cls-3" cx="291.69" cy="122.03" r="3.41"/>
        <circle class="cls-3" cx="154.56" cy="294.44" r="3.98"/>
        <circle class="cls-3" cx="184.15" cy="313.78" r="3.98"/>
        <circle class="cls-3" cx="157.98" cy="337.68" r="2.85"/>
        <circle class="cls-3" cx="258.12" cy="269.4" r="6.26"/>
        <circle class="cls-3" cx="272.91" cy="301.26" r="6.26"/>
        <circle class="cls-3" cx="239.34" cy="323.45" r="5.69"/>
        <path class="cls-3" d="M260.79,150.72v43.17c0,3.64-.78,7.25-2.28,10.57l-57.22,126.34c-5.1,11.26,3.13,24.03,15.5,24.03h138c12.33,0,20.56-12.7,15.53-23.95l-56.49-126.47c-1.47-3.29-2.23-6.85-2.23-10.45v-43.24c0-2.96-2.4-5.36-5.36-5.36h-40.1c-2.96,0-5.36,2.4-5.36,5.36Z"/>
        <rect class="cls-2" x="254.14" y="139.1" width="63.73" height="10.24" rx="3.88" ry="3.88"/>
        <path class="cls-3" d="M267.68,238.61c9.36,6.77,24.3,14.05,44.42,12.92,5.06-.28,9.79,2.52,11.87,7.14l30.55,67.86c3.62,8.05-2.26,17.16-11.09,17.16h-118.63c-8.74,0-14.62-8.94-11.18-16.96l35.69-83.1c3.09-7.19,12.02-9.59,18.36-5.01Z"/>
        <rect class="cls-3" x="268.93" y="153.89" width="10.24" height="62.59" rx="3.88" ry="3.88"/>
        <circle class="cls-3" cx="291.12" cy="157.88" r="5.12"/>
        <circle class="cls-3" cx="287.71" cy="174.95" r="3.98"/>
        <circle class="cls-3" cx="291.69" cy="191.45" r="5.69"/>
        <line class="cls-3" x1="301.49" y1="160.72" x2="311.61" y2="160.72"/>
        <line class="cls-3" x1="301.49" y1="176.65" x2="311.61" y2="176.65"/>
        <line class="cls-3" x1="301.49" y1="199.41" x2="311.61" y2="199.41"/>
        <line class="cls-3" x1="311.04" y1="219.33" x2="320.5" y2="219.33"/>
        <line class="cls-3" x1="330.52" y1="241.77" x2="322.99" y2="241.77"/>
        <line class="cls-3" x1="332.77" y1="263.14" x2="340.07" y2="263.14"/>
        <line class="cls-3" x1="342.9" y1="285.77" x2="350.18" y2="285.77"/>
        <line class="cls-3" x1="353.14" y1="309.8" x2="360.91" y2="309.8"/>
        <line class="cls-3" x1="362.25" y1="329.14" x2="369.55" y2="329.14"/>
        <circle class="cls-3" cx="319.57" cy="89.6" r="1.71"/>
        <circle class="cls-3" cx="345.75" cy="97.56" r="2.85"/>
        <circle class="cls-3" cx="357.13" cy="85.04" r="2.85"/>
        <g>
          <ellipse class="cls-3" cx="385.85" cy="112.15" rx="11.95" ry="27.88"/>
          <ellipse class="cls-3" cx="385.85" cy="112.15" rx="27.88" ry="11.95" transform="translate(-4.38 207.95) rotate(-30)"/>
          <ellipse class="cls-3" cx="385.85" cy="112.15" rx="11.95" ry="27.88" transform="translate(95.8 390.23) rotate(-60)"/>
          <circle class="cls-5" cx="385.85" cy="112.15" r="3.98"/>
          <circle class="cls-5" cx="362.52" cy="105.89" r="3.98"/>
          <circle class="cls-5" cx="409.18" cy="118.41" r="3.98"/>
        </g>
      </g>
      <line class="cls-3" x1="110.05" y1="446.92" x2="456.93" y2="446.92"/>
      <text class="cls-4" transform="translate(184.57 493.35)"><tspan x="0" y="0">SCIENTI</tspan><tspan class="cls-1" x="150.78" y="0">S</tspan><tspan x="173.75" y="0">T</tspan></text>
    </g>
  </g>
</svg>