<?xml version="1.0" encoding="UTF-8"?>
<svg xmlns="http://www.w3.org/2000/svg" viewBox="0 0 566.93 566.93">
  <defs>
    <style>
      .cls-1 {
        letter-spacing: -.02em;
      }

      .cls-2 {
        font-family: Gotham-Black, 'Gotham Black';
        font-size: 36.26px;
        font-weight: 800;
      }

      .cls-2, .cls-3 {
        fill: #fff;
      }

      .cls-4 {
        fill: none;
        stroke: #fff;
        stroke-miterlimit: 10;
      }

      .cls-5, .cls-3 {
        stroke-width: 0px;
      }
    </style>
  </defs>
  <g id="Layer_1" data-name="Layer 1">
    <rect class="cls-5" width="567" height="567"/>
  </g>
  <g id="Layer_3" data-name="Layer 3">
    <path class="cls-3" d="M433.04,52.63c11.61,0,21.05,9.44,21.05,21.05v420.26c0,11.61-9.44,21.05-21.05,21.05H131.17c-11.61,0-21.05-9.44-21.05-21.05V73.68c0-11.61,9.44-21.05,21.05-21.05h301.87M433.04,51.63H131.17c-12.18,0-22.05,9.87-22.05,22.05v420.26c0,12.18,9.87,22.05,22.05,22.05h301.87c12.18,0,22.05-9.87,22.05-22.05V73.68c0-12.18-9.87-22.05-22.05-22.05h0Z"/>
    <line class="cls-4" x1="109.12" y1="446.84" x2="455.1" y2="446.84"/>
    <text class="cls-2" transform="translate(213.35 494.36)"><tspan x="0" y="0">ARTI</tspan><tspan class="cls-1" x="90.67" y="0">S</tspan><tspan x="113.59" y="0">T</tspan></text>
    <g>
      <path class="cls-4" d="M234.76,173.01c-.23-.06-.46-.11-.69-.14l-1.51-2.62c-.7-1.21-2.25-1.62-3.46-.93l-2.2,1.27c-1.21.7-1.62,2.25-.93,3.46l1.51,2.62c-.09.22-.16.44-.22.67-1.36,5.08-.65,10.5,1.98,15.05l9.41,16.3,91,149.45c1.71,2.81,5.35,3.74,8.2,2.09h0c2.85-1.64,3.86-5.26,2.29-8.15l-83.92-153.54-9.41-16.3c-2.63-4.56-6.96-7.88-12.05-9.24Z"/>
      <line class="cls-4" x1="238.65" y1="208.69" x2="256.22" y2="198.55"/>
      <line class="cls-4" x1="227.26" y1="177.34" x2="234.76" y2="173.01"/>
      <path class="cls-4" d="M225.97,174.05c-28.03-2.36-17.61-29.44-17.61-29.44l3.33-7.92c.23-.55,1.04-.46,1.13.13.65,3.99,2.98,12.03,11.19,13,3.2.38,8.81,1.74,11.34,6.2,3.1,5.48-2.79,14.24-2.79,14.24"/>
      <path class="cls-3" d="M216.12,155.07c1.59,4.19,4.73,7.7,8.73,9.72.43.22.81-.43.38-.65-3.83-1.93-6.86-5.26-8.39-9.27-.17-.45-.9-.25-.72.2h0Z"/>
      <path class="cls-3" d="M220.8,154.48c.25,1.71,1.51,3.02,2.76,4.11,1.52,1.33,3.12,2.57,4.78,3.73.4.28.77-.37.38-.65-1.57-1.1-3.09-2.27-4.54-3.53-1.19-1.04-2.42-2.23-2.66-3.86-.07-.48-.79-.27-.72.2h0Z"/>
      <path class="cls-3" d="M212.18,154.29c-.34,2.82,1.46,5.47,3.24,7.48s4.03,3.92,6.39,5.38c.41.25.79-.39.38-.65-2.21-1.37-4.26-3.08-6.01-5.01s-3.58-4.46-3.25-7.21c.06-.48-.69-.47-.75,0h0Z"/>
    </g>
    <g>
      <path class="cls-4" d="M340.32,154.45l-19.83,17.59-5.51,9.55-4.24,7.35-89.85,155.63c-1.2,2.08-.49,4.75,1.59,5.95l10.08,5.82c2.08,1.2,4.75.49,5.95-1.59l89.85-155.63,4.24-7.35,5.51-9.55,5.31-25.97c.36-1.78-1.75-3-3.11-1.8Z"/>
      <path class="cls-4" d="M338.12,182.21l-.78-.12c-6.45-.97-12.3-4.34-16.36-9.45l-.49-.62"/>
      <path class="cls-4" d="M225.91,335.84l.49.62c4.06,5.1,9.91,8.48,16.36,9.45l.78.12"/>
      <line class="cls-4" x1="231.48" y1="340.37" x2="325.89" y2="176.85"/>
      <line class="cls-4" x1="236.41" y1="344.61" x2="330.81" y2="181.09"/>
    </g>
    <path class="cls-3" d="M346.76,114.81h-.73c0-12.52-6.75-22.71-15.04-22.71v-1.11c8.29,0,15.04-10.19,15.04-22.71h.73c0,12.52,6.75,22.71,15.04,22.71v1.11c-8.29,0-15.04,10.19-15.04,22.71ZM334.37,91.54c5.98,1.99,10.7,9.11,12.02,18.14,1.32-9.03,6.04-16.16,12.02-18.14-5.98-1.99-10.7-9.11-12.02-18.14-1.32,9.03-6.04,16.16-12.02,18.14Z"/>
    <path class="cls-3" d="M149.81,382.38c-1.97-.98-4.53-.38-6.43.48-2.42,1.1-3.42,3.41-3.9,5.91-.9,4.64-1.63,10.72,1.3,14.81,1.5,2.1,3.66,2.96,5.92,4.01.99.46,2.04.99,2.67,1.93.85,1.27.66,3.01.67,4.46.01,3.32-.24,6.78.23,10.08.4,2.79,1.86,5.48,4.65,6.46,2.82.99,5.18-.93,6.86-2.98s2.98-4.2,4.45-6.31c1.37-1.96,2.92-3.91,5.01-5.13,2.69-1.57,5.83-1.45,8.79-.91,1.57.29,3.12.73,4.69,1,1.4.24,2.89.26,4.08-.63,1.1-.83,1.73-2.19,2.23-3.43.53-1.32.83-2.73.93-4.15.39-5.58-2.73-10.89-7.81-13.22-2.61-1.2-5.37-1.53-8.2-1.09-3.17.5-6.16,1.59-9.4,1-2.99-.54-5.54-2.03-7.62-4.21-1.08-1.13-2.07-2.35-3.21-3.43-1-.95-2.05-1.87-3.11-2.75s-2.16-1.7-3.5-2.03l-.27,2,.45.04c1.31.12,1.3-1.92,0-2.04l-.45-.04c-1.15-.11-1.37,1.73-.27,2,1.21.3,2.21,1.14,3.12,1.95,1.01.89,2.06,1.76,3.01,2.71,1.97,1.99,3.64,4.22,6.05,5.72s5.02,2.23,7.74,2.3c3.03.07,5.85-1.1,8.84-1.36,4.96-.44,10.05,2.51,11.84,7.22.92,2.41,1.04,5.09.34,7.58-.33,1.16-.84,2.61-1.74,3.45-1.03.97-2.69.42-3.89.15-2.83-.64-5.76-1.35-8.69-1.1-2.53.21-4.81,1.17-6.76,2.79-3.63,3.01-5.49,7.54-8.56,11.03-.8.91-1.77,1.93-3.03,2.1-1.19.16-2.32-.53-3.1-1.38-1.92-2.13-1.66-5.45-1.67-8.11,0-1.64-.01-3.28-.02-4.93,0-1.41.08-2.89-.28-4.27-.62-2.36-2.61-3.57-4.7-4.49s-4.02-1.82-5.13-3.93c-1.04-1.97-1.21-4.31-1.16-6.49.06-2.41.3-4.98,1-7.3.31-1.04.77-2.14,1.72-2.74.85-.54,1.83-.86,2.82-1.05.75-.14,1.73-.26,2.45.09,1.17.58,2.2-1.17,1.03-1.76Z"/>
    <path class="cls-3" d="M271.09,119.64h-.36c0-6.18-3.33-11.21-7.42-11.21v-.55c4.09,0,7.42-5.03,7.42-11.21h.36c0,6.18,3.33,11.21,7.42,11.21v.55c-4.09,0-7.42,5.03-7.42,11.21ZM264.98,108.16c2.95.98,5.28,4.5,5.93,8.95.65-4.46,2.98-7.97,5.93-8.95-2.95-.98-5.28-4.5-5.93-8.95-.65,4.46-2.98,7.97-5.93,8.95Z"/>
    <path class="cls-3" d="M317.44,137.77h-.44c0-7.48-4.03-13.57-8.99-13.57v-.66c4.95,0,8.99-6.09,8.99-13.57h.44c0,7.48,4.03,13.57,8.99,13.57v.66c-4.95,0-8.99,6.09-8.99,13.57ZM310.05,123.87c3.57,1.19,6.39,5.44,7.18,10.84.79-5.4,3.61-9.65,7.18-10.84-3.57-1.19-6.39-5.44-7.18-10.84-.79,5.4-3.61,9.65-7.18,10.84Z"/>
    <path class="cls-3" d="M152.19,209.07h-.73c0-12.52-6.75-22.71-15.04-22.71v-1.11c8.29,0,15.04-10.19,15.04-22.71h.73c0,12.52,6.75,22.71,15.04,22.71v1.11c-8.29,0-15.04,10.19-15.04,22.71ZM139.8,185.81c5.98,1.99,10.7,9.11,12.02,18.14,1.32-9.03,6.04-16.16,12.02-18.14-5.98-1.99-10.7-9.11-12.02-18.14-1.32,9.03-6.04,16.16-12.02,18.14Z"/>
    <path class="cls-3" d="M182.87,238.07h-.36c0-6.18-3.33-11.21-7.42-11.21v-.55c4.09,0,7.42-5.03,7.42-11.21h.36c0,6.18,3.33,11.21,7.42,11.21v.55c-4.09,0-7.42,5.03-7.42,11.21ZM176.76,226.59c2.95.98,5.28,4.5,5.93,8.95.65-4.46,2.98-7.97,5.93-8.95-2.95-.98-5.28-4.5-5.93-8.95-.65,4.46-2.98,7.97-5.93,8.95Z"/>
    <path class="cls-3" d="M172.42,308.17h-.44c0-7.48-4.03-13.57-8.99-13.57v-.66c4.95,0,8.99-6.09,8.99-13.57h.44c0,7.48,4.03,13.57,8.99,13.57v.66c-4.95,0-8.99,6.09-8.99,13.57ZM165.03,294.27c3.57,1.19,6.39,5.44,7.18,10.84.79-5.4,3.61-9.65,7.18-10.84-3.57-1.19-6.39-5.44-7.18-10.84-.79,5.4-3.61,9.65-7.18,10.84Z"/>
    <path class="cls-3" d="M404.29,417.18h-.73c0-12.52-6.75-22.71-15.04-22.71v-1.11c8.29,0,15.04-10.19,15.04-22.71h.73c0,12.52,6.75,22.71,15.04,22.71v1.11c-8.29,0-15.04,10.19-15.04,22.71ZM391.91,393.91c5.98,1.99,10.7,9.11,12.02,18.14,1.32-9.03,6.04-16.16,12.02-18.14-5.98-1.99-10.7-9.11-12.02-18.14-1.32,9.03-6.04,16.16-12.02,18.14Z"/>
    <path class="cls-3" d="M328.63,422.01h-.36c0-6.18-3.33-11.21-7.42-11.21v-.55c4.09,0,7.42-5.03,7.42-11.21h.36c0,6.18,3.33,11.21,7.42,11.21v.55c-4.09,0-7.42,5.03-7.42,11.21ZM322.51,410.53c2.95.98,5.28,4.5,5.93,8.95.65-4.46,2.98-7.97,5.93-8.95-2.95-.98-5.28-4.5-5.93-8.95-.65,4.46-2.98,7.97-5.93,8.95Z"/>
    <path class="cls-3" d="M377.4,341.04h-.44c0-7.48-4.03-13.57-8.99-13.57v-.66c4.95,0,8.99-6.09,8.99-13.57h.44c0,7.48,4.03,13.57,8.99,13.57v.66c-4.95,0-8.99,6.09-8.99,13.57ZM370,327.14c3.57,1.19,6.39,5.44,7.18,10.84.79-5.4,3.61-9.65,7.18-10.84-3.57-1.19-6.39-5.44-7.18-10.84-.79,5.4-3.61,9.65-7.18,10.84Z"/>
    <path class="cls-3" d="M371.52,252.94h-.73c0-12.52-6.75-22.71-15.04-22.71v-1.11c8.29,0,15.04-10.19,15.04-22.71h.73c0,12.52,6.75,22.71,15.04,22.71v1.11c-8.29,0-15.04,10.19-15.04,22.71ZM359.13,229.67c5.98,1.99,10.7,9.11,12.02,18.14,1.32-9.03,6.04-16.16,12.02-18.14-5.98-1.99-10.7-9.11-12.02-18.14-1.32,9.03-6.04,16.16-12.02,18.14Z"/>
    <path class="cls-3" d="M219.72,397.96h-.36c0-6.18-3.33-11.21-7.42-11.21v-.55c4.09,0,7.42-5.03,7.42-11.21h.36c0,6.18,3.33,11.21,7.42,11.21v.55c-4.09,0-7.42,5.03-7.42,11.21ZM213.61,386.48c2.95.98,5.28,4.5,5.93,8.95.65-4.46,2.98-7.97,5.93-8.95-2.95-.98-5.28-4.5-5.93-8.95-.65,4.46-2.98,7.97-5.93,8.95Z"/>
    <path class="cls-3" d="M413.51,272.27h-.44c0-7.48-4.03-13.57-8.99-13.57v-.66c4.95,0,8.99-6.09,8.99-13.57h.44c0,7.48,4.03,13.57,8.99,13.57v.66c-4.95,0-8.99,6.09-8.99,13.57ZM406.11,258.38c3.57,1.19,6.39,5.44,7.18,10.84.79-5.4,3.61-9.65,7.18-10.84-3.57-1.19-6.39-5.44-7.18-10.84-.79,5.4-3.61,9.65-7.18,10.84Z"/>
    <path class="cls-3" d="M277.32,382.73h-.73c0-12.52-6.75-22.71-15.04-22.71v-1.11c8.29,0,15.04-10.19,15.04-22.71h.73c0,12.52,6.75,22.71,15.04,22.71v1.11c-8.29,0-15.04,10.19-15.04,22.71ZM264.93,359.46c5.98,1.99,10.7,9.11,12.02,18.14,1.32-9.03,6.04-16.16,12.02-18.14-5.98-1.99-10.7-9.11-12.02-18.14-1.32,9.03-6.04,16.16-12.02,18.14Z"/>
    <path class="cls-3" d="M430.06,209.91h-.36c0-6.18-3.33-11.21-7.42-11.21v-.55c4.09,0,7.42-5.03,7.42-11.21h.36c0,6.18,3.33,11.21,7.42,11.21v.55c-4.09,0-7.42,5.03-7.42,11.21ZM423.95,198.43c2.95.98,5.28,4.5,5.93,8.95.65-4.46,2.98-7.97,5.93-8.95-2.95-.98-5.28-4.5-5.93-8.95-.65,4.46-2.98,7.97-5.93,8.95Z"/>
    <path class="cls-3" d="M139.24,324.72h-.44c0-7.48-4.03-13.57-8.99-13.57v-.66c4.95,0,8.99-6.09,8.99-13.57h.44c0,7.48,4.03,13.57,8.99,13.57v.66c-4.95,0-8.99,6.09-8.99,13.57ZM131.84,310.82c3.57,1.19,6.39,5.44,7.18,10.84.79-5.4,3.61-9.65,7.18-10.84-3.57-1.19-6.39-5.44-7.18-10.84-.79,5.4-3.61,9.65-7.18,10.84Z"/>
    <path class="cls-3" d="M394.15,89.69c-1.04-4.28.53-8.86,4.08-11.5,1.64-1.22,4.12-2.48,6.18-1.69,1.8.69,3.08,2.51,4.08,4.07,2.04,3.18,3.7,6.91,7.24,8.7.9.45,1.86.79,2.85.96.57.1,1.14.15,1.72.16.61,0,1.26-.09,1.85.12,1.66.58,2.83,2.65,3.56,4.13,1.63,3.34,2.17,7.1,3.64,10.51.34.78.72,1.55,1.18,2.27.55.86,1.26,1.6,1.82,2.45s.66,1.62-.02,2.46-1.65,1.36-2.64,1.66c-3.51,1.08-8.22.07-10.34-3.11-1.19-1.79-1.57-4-2.87-5.73-1.17-1.55-3.09-2.81-5.11-2.35-1.06.24-1.89.93-2.69,1.63-.9.79-1.82,1.38-3.01,1.62-2.3.46-4.35-.6-5.85-2.29s-2.89-4.06-3.45-6.29c-.33-1.34-.25-2.74-.76-4.04-.45-1.16-1.16-2.16-1.89-3.16-.79-1.07-2.6-.03-1.8,1.05.67.91,1.39,1.85,1.78,2.93.48,1.3.36,2.74.74,4.07.64,2.26,1.94,4.46,3.39,6.29s3.22,3.15,5.46,3.51,4.51-.26,6.27-1.69c.72-.58,1.42-1.46,2.38-1.62,1.08-.18,2.11.62,2.75,1.4,1.53,1.86,1.83,4.44,3.33,6.35,2.66,3.4,7.63,4.59,11.72,3.59,1.99-.49,4.1-1.7,4.91-3.67.96-2.33-.84-3.95-2.05-5.71-2.35-3.43-2.86-7.7-4.35-11.5-.71-1.81-1.63-3.54-2.96-4.98-.71-.77-1.56-1.48-2.58-1.8-1.24-.39-2.58-.08-3.85-.33-4.66-.91-6.42-5.41-8.76-8.96-1.27-1.92-2.88-3.92-5.12-4.71-2.55-.9-5.47.27-7.57,1.74-4.49,3.14-6.55,8.69-5.26,14.01.32,1.31,2.33.75,2.01-.56h0Z"/>
    <path class="cls-3" d="M163.16,86.12c-1.22-.64-1.74-1.9-2.12-3.16s-.68-2.56-.9-3.85c-.38-2.27-.51-5.02,1.02-6.93,1.94-2.43,5.34-2.31,7.75-.7,2.28,1.52,3.68,3.96,4.57,6.49.44,1.26.78,2.54,1.1,3.84.36,1.47.57,3.06,1.36,4.38,1.42,2.39,3.96,3,6.57,2.73s5.11-1.08,7.58-.15,4.31,3.63,3.28,6.27-4.37,2.77-6.84,2.79c-2.75.02-5.6.03-7.82,1.89-.51.43-.29,1.24.2,1.56,1.54,1,2.93,2.18,4.18,3.53,1,1.09,2.15,2.32,2.41,3.83.36,2.1-1.14,4.16-3.09,4.83-3,1.03-4.9-1.66-7.06-3.24-2.64-1.94-6.14-3.53-9.27-1.7-2.24,1.3-3.26,3.94-3.64,6.38-.1.67-.18,1.34-.22,2.01-.04.76.03,1.52-.24,2.24-.46,1.23-1.54,2.24-2.68,2.85-1.92,1.02-4.31.88-6.19-.16-.97-.54-1.81-1.3-2.4-2.25-.76-1.21-.99-2.57-1.22-3.96-.28-1.67-.48-3.29-.16-4.98.29-1.55.87-3.01,1.71-4.34,1.64-2.58,4.32-4.51,7.44-4.58,1.11-.03,1.37-1.65.26-1.95-3.68-1.01-7.36-2.06-10.92-3.46-2.3-.9-5.52-1.84-6.37-4.47-.55-1.7-.11-3.68,1.11-5,1.73-1.86,3.89-1.5,6.14-.99,4.48,1.02,8.91,2.26,13.33,3.5,1.23.35,1.76-1.57.53-1.91-4.42-1.24-8.85-2.48-13.33-3.5-1.53-.35-3.01-.72-4.57-.44-1.16.21-2.24.77-3.11,1.56-1.76,1.58-2.58,4.08-2.21,6.4.47,2.95,2.71,4.47,5.25,5.62,4.38,1.99,9.01,3.34,13.64,4.61l.26-1.95c-6.57.16-11.29,6.6-11.32,12.83,0,1.75.35,3.56.72,5.26.3,1.37.92,2.64,1.81,3.72,1.68,2.04,4.38,3.23,7.02,3.13,2.84-.11,5.72-1.76,6.94-4.4.68-1.47.46-3.07.66-4.64.19-1.39.56-2.82,1.34-4.01s1.93-1.86,3.3-1.93c2.05-.1,3.93,1.16,5.51,2.33,1.43,1.07,2.62,2.53,4.3,3.22,1.27.52,2.69.58,4.01.19,2.83-.86,5.04-3.68,4.73-6.7-.19-1.91-1.32-3.4-2.54-4.81-1.46-1.69-3.17-3.15-5.04-4.36l.2,1.56c2.03-1.7,5.14-1.25,7.59-1.32,2.67-.08,5.45-.64,7.01-3.04,1.75-2.7.87-6.39-1.49-8.41s-5.23-2.2-8.15-1.78c-2.5.35-5.84,1.27-7.42-1.38-.81-1.36-.97-3.18-1.36-4.7s-.81-2.94-1.4-4.34c-1.15-2.76-2.96-5.29-5.63-6.78-2.9-1.62-6.63-1.41-9.07.95s-2.48,5.72-2.05,8.77c.23,1.6.59,3.22,1.09,4.75.53,1.62,1.36,3.19,2.92,4,1.13.59,2.14-1.12,1-1.71h0Z"/>
    <path class="cls-3" d="M198.61,211.46c1.93,0,1.93-3,0-3s-1.93,3,0,3h0Z"/>
    <path class="cls-3" d="M207,259.89c1.93,0,1.93-3,0-3s-1.93,3,0,3h0Z"/>
    <path class="cls-3" d="M148.33,258.96c1.93,0,1.93-3,0-3s-1.93,3,0,3h0Z"/>
    <path class="cls-3" d="M129.7,225.43c1.93,0,1.93-3,0-3s-1.93,3,0,3h0Z"/>
    <path class="cls-3" d="M294.53,167.7c1.93,0,1.93-3,0-3s-1.93,3,0,3h0Z"/>
    <path class="cls-3" d="M382.07,157.45c1.93,0,1.93-3,0-3s-1.93,3,0,3h0Z"/>
    <path class="cls-3" d="M405.96,186.34c1.93,0,1.93-3,0-3s-1.93,3,0,3h0Z"/>
    <path class="cls-3" d="M236.8,116.48c1.93,0,1.93-3,0-3s-1.93,3,0,3h0Z"/>
    <path class="cls-3" d="M288.01,88.54c1.93,0,1.93-3,0-3s-1.93,3,0,3h0Z"/>
    <path class="cls-3" d="M433.29,153.73c1.93,0,1.93-3,0-3s-1.93,3,0,3h0Z"/>
    <path class="cls-3" d="M370.89,125.79c1.93,0,1.93-3,0-3s-1.93,3,0,3h0Z"/>
    <path class="cls-3" d="M410.01,302.73c1.93,0,1.93-3,0-3s-1.93,3,0,3h0Z"/>
    <path class="cls-3" d="M437.01,349.29c1.93,0,1.93-3,0-3s-1.93,3,0,3h0Z"/>
    <path class="cls-3" d="M266.6,403.3c1.93,0,1.93-3,0-3s-1.93,3,0,3h0Z"/>
    <path class="cls-3" d="M295.46,412.61c1.93,0,1.93-3,0-3s-1.93,3,0,3h0Z"/>
    <path class="cls-3" d="M238.66,422.86c1.93,0,1.93-3,0-3s-1.93,3,0,3h0Z"/>
    <path class="cls-3" d="M171.61,353.01c1.93,0,1.93-3,0-3s-1.93,3,0,3h0Z"/>
    <path class="cls-3" d="M137.15,348.36c1.93,0,1.93-3,0-3s-1.93,3,0,3h0Z"/>
    <path class="cls-3" d="M181.39,141.81c1.93,0,1.93-3,0-3s-1.93,3,0,3h0Z"/>
    <path class="cls-3" d="M208.89,102.68c1.93,0,1.93-3,0-3s-1.93,3,0,3h0Z"/>
    <path class="cls-3" d="M215.24,77.29c1.93,0,1.93-3,0-3s-1.93,3,0,3h0Z"/>
    <path class="cls-3" d="M133.79,127.01c1.93,0,1.93-3,0-3s-1.93,3,0,3h0Z"/>
    <path class="cls-3" d="M344.29,295.2c1.93,0,1.93-3,0-3s-1.93,3,0,3h0Z"/>
    <path class="cls-3" d="M384.48,282.5c1.93,0,1.93-3,0-3s-1.93,3,0,3h0Z"/>
    <path class="cls-3" d="M363.33,391.46c1.93,0,1.93-3,0-3s-1.93,3,0,3h0Z"/>
    <path class="cls-3" d="M370.73,433.77c1.93,0,1.93-3,0-3s-1.93,3,0,3h0Z"/>
    <path class="cls-3" d="M434.2,413.67c1.93,0,1.93-3,0-3s-1.93,3,0,3h0Z"/>
    <path class="cls-3" d="M433.14,234.9c1.93,0,1.93-3,0-3s-1.93,3,0,3h0Z"/>
  </g>
</svg>